<svg version="1.2" xmlns="http://www.w3.org/2000/svg" viewBox="0 0 200 200" width="200" height="200"><style></style><filter id="f0"><feFlood flood-color="#8dfcb0" flood-opacity="1" /><feBlend mode="normal" in2="SourceGraphic"/><feComposite in2="SourceAlpha" operator="in" /></filter><g filter="url(#f0)"><path  d="m83.6 41.4c0 3.5 0 6.5 0 10.1-1.8 0-3.4 0-5.1 0-14.5 0-29 0-43.6 0-10.6 0-16.8 6.3-16.8 16.9 0 32.3 0 64.6 0 97 0 11.3 6 17.3 17.3 17.3 32.5 0 65 0 97.4 0 10.8 0 17.1-6.2 17.1-17.2 0.1-15 0-30 0-45 0-1.7 0-3.4 0-5.4 3.6 0 6.8 0 10.4 0 0 13.3 0.1 26.6 0 39.8-0.1 6.1 0.2 12.2-0.9 18.2-2 11.7-12.5 20-24.3 20-33.9 0.1-67.8 0.1-101.6 0-15 0-25.8-10.7-25.9-25.6-0.1-33.6-0.1-67.1 0-100.7 0-14.7 10.8-25.5 25.4-25.6 15.5-0.1 30.9 0 46.4 0 1.4-0.1 2.7 0.1 4.2 0.2z"/><path  d="m143.9 6.8c1.4 2.2 2.4 3.3 2.7 4.5 1 4.1 1.6 8.3 2.5 12.4 3.3 15.1 14.1 25.3 29.2 27.8 3.7 0.6 7.4 1.2 11 2.1 1.1 0.3 1.9 1.7 2.8 2.5-0.9 0.9-1.7 2.3-2.8 2.6-3.5 0.9-7 1.4-10.6 2-16.8 2.9-27.4 13.5-30.4 30.6-0.6 3.2-1 6.5-1.9 9.6-0.3 1.2-1.7 2.1-2.6 3.1-0.9-1.1-2.3-2-2.6-3.2-0.9-3.6-1.5-7.3-2.1-11-2.7-15.2-13.6-26.1-28.8-28.8-3.8-0.7-7.7-1.2-11.5-2.2-1.2-0.3-2-1.8-3-2.8 1-0.8 1.8-2.1 2.9-2.4 4.7-1.1 9.6-1.6 14.2-2.8 14.3-3.8 23-13.2 26-27.7 0.8-3.8 1.3-7.7 2.2-11.5 0.6-1.3 1.5-2.4 2.8-4.8z"/><path  d="m99.1 154.2c-4.4 0-8 0-12 0-1.4-4.6-2.9-9.1-4.1-13.7-0.7-2.7-2-3.8-4.9-3.7-5.9 0.2-11.9-0.1-17.8 0.2-1.4 0.1-3.3 1.5-3.8 2.8-1.4 3.3-2.5 6.7-3.2 10.2-0.7 3.4-2.2 4.8-5.7 4.3-2.3-0.3-4.7-0.1-7.6-0.1 2.1-6.8 4.1-13.1 6.1-19.4 4.8-15.2 9.8-30.3 14.5-45.5 1-3.1 2.3-4.3 5.6-4 3.6 0.3 7.2 0.1 11 0.1 7.1 22.9 14.4 45.5 21.9 68.8zm-29-55.8c-0.4-0.1-0.8-0.1-1.2-0.2-2.8 9.2-5.6 18.5-8.4 28 6.4 0 11.9 0 18 0-2.9-9.5-5.7-18.6-8.4-27.8z"/><path  d="m119.9 85.9c0 22.9 0 45.3 0 68.1-3.5 0-6.9 0-10.6 0q0-34.1 0-68.1c3.8 0 7.2 0 10.6 0z"/><path  d="m116.6 11c1.2 6 4.5 9.3 10.8 10-5.8 1-9.7 3.9-10.7 10.2-1.3-6.1-5-9.2-11-10.1 6-0.8 9.8-3.8 10.9-10.1z"/></g></svg>