<svg version="1.2" xmlns="http://www.w3.org/2000/svg" viewBox="0 0 200 200" width="200" height="200"><style></style><filter id="f0"><feFlood flood-color="#8dfcb0" flood-opacity="1" /><feBlend mode="normal" in2="SourceGraphic"/><feComposite in2="SourceAlpha" operator="in" /></filter><g filter="url(#f0)"><path  d="m198.4 34.6c0 21.3 0 42.7 0 64-0.6 1.6-1.8 2.2-3.5 2-1.1-0.1-2.2 0-3.2 0-1 0-2.1 0-3.1 0 0 18.2 0 36.3 0 54.4 2 0 3.9 0 5.8 0 1.6 0 2.7 1.1 2.7 2.7 0 2.3 0.1 4.5-0.1 6.8-0.6 9.5-7.2 17.8-16.4 20.3q-1.8 0.4-3.6 0.9c-47.5 0-94.9 0-142.4 0-0.2-0.1-0.4-0.1-0.6-0.2-7.3-1.2-12.8-4.9-16.6-11.2-3.2-5.3-3.3-11.1-3-17 0.1-1.3 1.1-2.2 2.4-2.2 1.2 0 2.3 0 3.5 0 0.9 0 1.7 0 2.6 0 0-18.4 0-36.6 0-54.9-0.3 0.2-0.5 0.2-0.6 0.3-1.8 1.1-3.5 2.2-5.3 3.2-1.6 1-2.9 0.7-4-0.8-0.2-0.2-0.3-0.4-0.5-0.6-2.8-4-5.6-8.1-8.4-12.1-1.3-1.8-1.1-3.1 0.7-4.5 2.5-2 5.1-4 7.7-5.9 1-0.8 1.7-1.5 1.3-2.9-0.1-0.3-0.1-0.7-0.1-1 0.1-0.6-0.2-1-0.8-1.3-3.3-1.7-6.5-3.5-9.8-5.3-1.5-0.8-2-2.3-1.2-3.9 2.2-4.7 4.5-9.4 6.7-14.1 0.9-1.9 2.1-2.4 4-1.6 2.8 1.1 5.6 2.2 8.3 3.4 1.7 0.8 3.1 1 4.5-0.5 0.1-0.1 0.1-0.1 0.2-0.1 0.7-0.3 0.8-0.8 0.8-1.5-0.1-3.6-0.2-7.2-0.2-10.7 0-2.2 0.8-3 3-3.2 5.1-0.4 10.2-0.8 15.3-1.3 1.8-0.2 3 0.7 3.3 2.5 0.5 3.3 1 6.6 1.3 9.9 0.1 1.3 0.5 2.3 1.9 2.7 0.4 0.1 0.7 0.3 1 0.5 0.5 0.4 0.9 0.2 1.4-0.1 3.1-2 6.3-3.9 9.5-5.8 1.5-0.9 2.9-0.6 3.9 0.8 2.8 4 5.6 8 8.4 12.1 0.7 1.1 1.6 2.1 1.2 3.5q25.5 0 51 0 0-0.6 0-1.2c0-14.6 0-29.1 0-43.7 0-1.7 1-2.8 2.6-2.8q23.1 0 46.2 0c0.6 0 1.3 0.3 1.8 0.7 1.4 1.2 2.7 2.4 4 3.7 4.3 4.1 8.7 8.1 13 12.2 1.2 1.2 2.7 2.1 3.4 3.8zm-120.6 46.2c0.5 1.1 0.6 2 0.2 3-2.2 4.7-4.4 9.4-6.7 14-1 2.1-2.2 2.5-4.3 1.6-3.3-1.4-6.6-2.7-9.9-4-0.5-0.2-0.8-0.2-1.3 0.1-0.6 0.5-1.2 0.9-1.9 1.3-0.5 0.3-0.6 0.6-0.6 1.1 0.1 2.4 0.1 4.8 0.2 7.2 0 1.3 0.1 2.6 0.2 3.9 0.1 1.8-1 2.9-2.8 3-2.8 0.2-5.5 0.5-8.3 0.6-0.7 0-1 0.3-1 1 0 13.3 0 26.7 0 40 0 1.2 0 1.2 1.1 1.2 41.9 0 83.8 0 125.6 0 0.3 0 0.7 0 1.1 0 0-18.2 0-36.3 0-54.4-0.5 0-1 0-1.4 0-12.6 0-25.2 0-37.9 0-1.9 0-2.8-1-2.8-2.9q0-8 0-15.9c0-0.3 0-0.7 0-1-16.5 0.2-32.9 0.2-49.5 0.2zm55 14.5c20.1 0 40.2 0 60.2 0 0-19.2 0-38.3 0-57.5-0.4 0-0.6 0-0.9 0q-6.1 0-12.3 0c-3.8 0-6.3-2.5-6.3-6.3 0-3.6 0-7.3 0-10.9 0-0.3 0-0.7-0.1-1-13.6 0-27.1 0-40.6 0 0 25.3 0 50.5 0 75.7zm-113 65.1c0 1.3-0.1 2.6 0 3.8 0.3 4.4 2 8.2 5.2 11.3 3.5 3.5 7.9 5.1 12.8 5.1 45 0 90.1 0 135.1 0 0.8 0 1.5 0 2.3-0.1 9-0.5 16.2-7.8 16.5-16.8 0-1.1 0-2.1 0-3.2-0.4 0-0.7 0-1 0-20.4 0-40.8 0-61.1 0-0.6 0-0.8 0.2-1 0.8-1 3.2-2.1 6.4-3.2 9.5-0.6 1.9-1.3 2.3-3.3 2.3-11 0-22 0-33.1 0-1.7 0-2.4-0.5-3-2.1-1.1-3.2-2.2-6.3-3.2-9.5-0.2-0.7-0.6-1-1.3-1-20.3 0-40.6 0-61 0-0.2-0.1-0.4-0.1-0.7-0.1zm47.5-66.6c0.1-0.2 0.2-0.4 0.3-0.5 1.4-3 2.9-6.1 4.3-9.1 0.3-0.6 0-0.7-0.4-1-3-1.6-6-3.3-9.1-4.9-1-0.6-1.5-1.4-1.5-2.6-0.1-1.8-0.2-3.6-0.5-5.4-0.2-1.3 0.2-2.3 1.2-3.1 1.3-1 2.6-2 3.9-3.1 1.5-1.2 3.1-2.4 4.6-3.6-2.2-3.1-4.3-6.2-6.4-9.3-0.3 0.2-0.6 0.3-0.8 0.5-2.8 1.7-5.6 3.4-8.4 5.2-1.2 0.7-2.2 0.7-3.4 0.1-1.4-0.8-2.9-1.6-4.4-2.1-1.6-0.6-2.2-1.6-2.4-3.1-0.4-3.2-0.9-6.3-1.3-9.5-0.1-0.6-0.3-0.8-0.9-0.8-3 0.3-5.9 0.5-8.9 0.7-1.6 0.1-1.6 0.1-1.6 1.7 0.1 3 0.1 6.1 0.2 9.1 0 1.4-0.4 2.5-1.6 3.2-1.4 0.9-2.9 1.8-4.2 2.9-1.1 0.9-2.2 1.1-3.6 0.5-1.9-0.8-3.8-1.5-5.7-2.3-1.4-0.6-2.8-1.1-4.3-1.7-1.4 3.4-3 6.7-4.6 10.1 0.2 0.1 0.4 0.3 0.6 0.4 2.9 1.6 5.9 3.2 8.8 4.8 1.3 0.7 1.8 1.6 1.8 3 0 1.7 0.2 3.5 0.4 5.2 0.1 1.2-0.1 2.2-1.1 2.9-1.7 1.3-3.3 2.6-5 3.9-1.2 1-2.5 1.9-3.7 2.9 2.2 3.1 4.3 6.2 6.4 9.3 0.3-0.2 0.6-0.4 0.9-0.5 2.8-1.7 5.6-3.4 8.4-5.2 1-0.6 2-0.7 3.1-0.2 1.7 0.8 3.4 1.7 5.2 2.5 1 0.5 1.7 1.1 1.8 2.3 0.2 1.5 0.4 3.1 0.6 4.6 0.3 2.1 0.6 4.2 0.9 6.4 0.4 0 0.7 0 1.1 0 3.1-0.3 6.1-0.5 9.2-0.7 0.8-0.1 1.1-0.3 1-1.1-0.1-3.3-0.2-6.7-0.3-10 0-1.2 0.5-2.1 1.6-2.7 1.5-0.9 2.9-1.9 4.3-3 1-0.8 2.1-1 3.2-0.5 1.9 0.7 3.7 1.5 5.6 2.3 1.6 0.3 3.1 0.9 4.7 1.5zm60.1-26.4c-0.4 0-0.6 0-0.9 0q-27.8 0-55.5 0c-0.3 0-0.6 0-0.8 0.1-1.4 1-2.7 2.1-4.1 3.1q0.1 1.9 0.3 3.9c0.8 0.3 1.7 1 2.5 1 19.1 0.1 38.2 0 57.3 0 0.4 0 0.7 0 1.1 0 0.1-2.8 0.1-5.4 0.1-8.1zm47.6 33.2c0 18.2 0 36.3 0 54.4 2.7 0 5.3 0 8 0 0-18.1 0-36.2 0-54.4q-0.6 0-1.2 0c-2.3 0-4.5 0-6.8 0zm-146.6-2.1c0 18.8 0 37.7 0 56.5 2.7 0 5.3 0 7.9 0 0-13.9 0-27.7 0-41.6-0.4 0-0.8 0-1.1 0-1.9 0.2-2.9-0.7-3.2-2.5-0.5-3.4-1-6.9-1.5-10.3-0.1-1.6-0.3-1.8-2.1-2.1zm59.8 61.9c0.8 2.4 1.5 4.6 2.3 6.9 0.1 0.2 0.5 0.4 0.8 0.4q14.4 0 28.8 0c0.5 0 0.7-0.2 0.9-0.7 0.3-0.9 0.6-1.7 0.9-2.6 0.5-1.3 0.9-2.7 1.4-4.1-11.8 0.1-23.4 0.1-35.1 0.1zm90.7-137.3c0 0.4 0 0.6 0 0.8q0 3.7 0 7.5c0 0.9 0.3 1.1 1.1 1.1 2.7 0 5.4 0 8 0 0.2 0 0.4 0 0.8-0.1-3.3-3.1-6.6-6.1-9.9-9.3z"/><path  d="m115.9 119.6c-1.6 1.2-3 2.2-4.4 3.3-0.8 0.6-1.5 1.2-2.3 1.7-1.3 0.9-2.4 0.9-3.7 0-1.9-1.4-3.8-2.8-5.7-4.3-0.3-0.2-0.5-0.4-1-0.7 0 0.6 0 1 0 1.4 0 5.7 0 11.4 0 17 0 1.8-1 2.9-2.6 2.9-1.7 0-2.7-1-2.8-2.8 0-7.9 0-15.7 0-23.6 0-1.2 0.4-2.1 1.5-2.6 1.1-0.5 2.1-0.3 3 0.4 2.9 2.2 5.7 4.3 8.6 6.5 0.5 0.4 0.8 0.4 1.3 0 2.9-2.2 5.8-4.3 8.7-6.5 1-0.7 2-0.9 3-0.4 1 0.5 1.4 1.4 1.4 2.5 0 7.9 0 15.9 0 23.8 0 1.3-0.7 2.2-1.8 2.6-1 0.4-2.3 0.1-2.9-0.8-0.4-0.6-0.6-1.5-0.6-2.2-0.1-5.7 0-11.3 0-17 0.3-0.4 0.3-0.7 0.3-1.2z"/><path  d="m132.1 116.7q0 3.4 0 6.9c0.4 0 0.7 0 1 0q5.2 0 10.5 0c2.9 0 4.8 1.9 4.9 4.8 0 2.6 0 5.2 0 7.9 0 2.9-1.9 4.8-4.8 4.8-4.1 0-8.1 0-12.2 0-2.5 0-4.3-1.5-4.7-4-0.2-1.3 0.5-2.6 1.7-3 1.2-0.5 2.5 0 3.2 1.2 0.2 0.3 0.5 0.6 0.8 0.6q5.1 0 10.2 0c0.1 0 0.2 0 0.3-0.1 0-2.2 0-4.4 0-6.8-0.3 0-0.7 0-1 0-3.4 0-6.9 0-10.3 0-3.1 0-5-1.9-5-5 0-2.5 0-5.1 0-7.6 0-2.9 1.8-4.8 4.7-4.9q6.1-0.1 12.3 0c2.6 0 4.3 1.7 4.7 4.2 0.2 1.3-0.6 2.5-1.7 2.9-1.2 0.4-2.5 0-3.2-1.2-0.3-0.5-0.7-0.7-1.2-0.7-3.1 0-6.1 0-9.2 0-0.3 0-0.6 0-1 0z"/><path  d="m63 126.2c0-2.4 0-4.9 0-7.3 0-4.2 2.9-7.3 7.1-7.3 3.8-0.1 7.7-0.1 11.5 0 4.1 0.1 7.2 3.3 7.1 7.2 0 1.4-1.1 2.5-2.5 2.5-1.4 0.1-2.6-0.9-2.8-2.3-0.2-1.7-0.8-2.2-2.5-2.2-3.4 0-6.9 0-10.3 0-1.7 0-2.4 0.7-2.4 2.4 0 4.7 0 9.3 0 14 0 1.7 0.7 2.4 2.5 2.4 3.4 0 6.9 0 10.3 0 1.6 0 2.3-0.6 2.5-2.2 0.2-1.4 1.4-2.4 2.7-2.3 1.4 0.1 2.5 1.1 2.5 2.5 0.1 3.9-3 7.2-6.9 7.2q-6 0-12 0c-3.7 0-6.8-3.1-6.8-6.8v-0.1c0-2.5 0-5.1 0-7.7z"/><path  d="m162.9 68.7q10.5 0 21 0c1.3 0 2.3 0.7 2.6 1.9 0.3 1.2-0.1 2.4-1.2 3-0.5 0.3-1.2 0.4-1.7 0.4q-20.7 0-41.4 0c-1.5 0-2.5-0.6-2.9-1.7-0.4-1.1-0.3-2.1 0.6-2.9 0.5-0.4 1.4-0.7 2-0.7 7.1 0 14 0 21 0z"/><path  d="m162.8 60.1c-7 0-13.9 0-20.9 0-1.1 0-1.9-0.4-2.5-1.4-0.5-1-0.6-2 0.2-2.8 0.5-0.5 1.3-0.8 1.9-1.2 0.2-0.1 0.5 0 0.7 0q20.7 0 41.4 0c1.8 0 3 1 3 2.6 0 1.7-1.1 2.7-3 2.7-6.9 0.1-13.8 0.1-20.8 0.1z"/><path  d="m162.8 46.2c-6.8 0-13.7 0-20.5 0-2 0-3.1-0.9-3.2-2.6 0-1.7 1.2-2.7 3.2-2.7q15.1 0 30.3 0c3.7 0 7.3 0 11 0 1.9 0 3.1 1.4 2.9 3.1-0.2 1.4-1.2 2.2-2.7 2.2q-10.4 0-21 0z"/><path  d="m162.9 82.7c7 0 14 0 21.1 0 1.3 0 2.3 0.8 2.6 2.1 0.3 1.3-0.3 2.5-1.6 3-0.3 0.1-0.7 0.2-1.1 0.2q-21 0-42 0c-1.7 0-2.8-1.1-2.8-2.7 0-1.5 1.2-2.6 2.8-2.6q10.5 0 21 0z"/><path  d="m153 27c3.7 0 7.3 0.1 11 0 1.9 0 2.9 1.4 2.9 2.6 0 1.6-1.2 2.7-2.8 2.7q-11.1 0-22.2 0c-1.7 0-2.8-1.1-2.8-2.7 0-1.5 1.2-2.5 2.8-2.6q5.5 0 11.1 0z"/><path  d="m56.2 74.6c0.1 9-7.4 16.6-16.9 16.4-8.4-0.2-15.8-7.6-15.7-16.3 0-9.4 7.8-16.7 17-16.3 8.4 0.3 15.6 7.3 15.6 16.2zm-16.2-10.9c-6.1 0-11 4.9-11.1 10.9 0 5.8 5 10.9 10.7 11 5.9 0.1 11.2-4.6 11.2-10.8 0.2-6.1-4.7-11.1-10.8-11.1z"/></g></svg>