<svg version="1.2" xmlns="http://www.w3.org/2000/svg" viewBox="0 0 200 200" width="200" height="200"><style></style><filter id="f0"><feFlood flood-color="#8dfcb0" flood-opacity="1" /><feBlend mode="normal" in2="SourceGraphic"/><feComposite in2="SourceAlpha" operator="in" /></filter><g filter="url(#f0)"><path  d="m100 53.7c-25.5 0-46.4 20.7-46.4 46.2-0.1 25.6 20.7 46.5 46.3 46.5 25.6 0 46.4-20.6 46.5-46.2 0-25.6-20.9-46.5-46.4-46.5zm-0.2 85.7c-21.7 0-39.3-17.6-39.3-39.3 0-21.7 17.6-39.2 39.3-39.2 21.7 0 39.2 17.6 39.2 39.2 0 21.6-17.5 39.3-39.2 39.3z"/><path  d="m192.6 101.1c-1 1.6-2.5 2-4.3 2-8.5-0.1-17 0-25.5 0-3.2 0-4.2-1-4.2-4.2-0.2-9.6-2.6-18.7-7.2-27.2-0.5-0.9-1-1.9-1-2.8 0-1.8 1.5-2.9 3.9-2.9 6.3 0 12.5 0 18.8 0 1.1 0 2-0.2 2.8-1.2 2.3-2.5 6.3-2.5 8.7-0.1 2.4 2.4 2.4 6.4-0.1 8.8-2.5 2.4-6.4 2.4-8.7-0.2-0.8-0.9-1.7-1.2-2.8-1.2-4.7 0-9.5 0-14.5 0 3.7 7.9 5.7 16.1 6.2 24.7 0.8 0 1.4 0 2.1 0 7.1 0 14.2 0 21.4 0 1.9 0 3.4 0.4 4.5 2-0.1 0.9-0.1 1.6-0.1 2.3z"/><path  d="m101 7.3c1.6 1.1 2.1 2.6 2 4.5-0.1 7.1 0 14.2 0 21.3 0 0.6 0 1.3 0 2 3.2 0.4 6.2 0.8 9.3 1.2 2.4 0.4 3.6 2.3 2.8 4.2-0.6 1.5-1.8 2.1-3.3 1.9q-6-0.6-12-1.2c-1.9-0.2-2.9-1.4-2.9-3.5-0.1-2.8 0-5.5 0-8.3 0-6 0-11.9 0-17.9 0-1.8 0.5-3.3 2-4.3 0.6 0.1 1.3 0.1 2.1 0.1z"/><path  d="m72 177.1c0-5.9 0-11.8-0.1-17.6 0-0.6-0.9-1.3-1.5-1.6-7.5-3.9-14-9-19.6-15.3-1-1.1-1.5-2.4-0.8-3.6 0.5-0.8 1.6-1.8 2.5-1.7 1.1 0.1 2.4 0.8 3.2 1.6 4.2 4.6 8.8 8.5 14.2 11.7 1.8 1.1 3.7 2.1 5.6 2.9 1.9 0.8 2.7 2.1 2.7 4.2-0.1 6.4 0 12.8 0 19.2 0 4.2-2.4 6.6-6.6 6.6q-13.2 0-26.4 0c-1.1 0-1.9 0.3-2.6 1.1-2.3 2.6-6.2 2.7-8.7 0.3-2.5-2.4-2.5-6.3-0.1-8.8 2.5-2.5 6.4-2.4 8.9 0.1 0.5 0.5 1.2 1 1.9 1 8.9 0.1 17.9 0 26.8 0 0 0 0.2 0 0.6-0.1z"/><path  d="m127.7 22.9c0 6 0 11.8 0.1 17.6 0 0.6 0.7 1.3 1.3 1.6 6.2 3.2 11.8 7.2 16.8 12.1 1.6 1.6 1.7 3.4 0.4 4.8-1.3 1.3-3.1 1.2-4.8-0.4-4.4-4.4-9.3-8-14.9-10.8-5.2-2.7-5.1-1.4-5.1-8.3 0-5.4 0-10.7 0-16.1 0-4.3 2.4-6.7 6.7-6.7 8.8 0 17.6 0 26.4-0.1 0.8 0 1.8-0.5 2.4-1.1 2.6-2.5 6.4-2.7 8.9-0.2 2.5 2.4 2.5 6.4 0 8.8-2.5 2.5-6.4 2.3-8.9-0.2-0.5-0.5-1.3-1-1.9-1-8.8-0.1-17.6 0-26.4 0-0.2-0.1-0.5-0.1-1 0z"/><path  d="m127.7 177.3c2 0 3.8 0 5.6 0 7.1 0 14.3 0 21.4 0 0.8 0 1.8-0.5 2.4-1 2.6-2.5 6.5-2.6 8.9-0.1 2.4 2.5 2.4 6.3-0.1 8.8-2.5 2.5-6.4 2.3-8.9-0.3-0.5-0.6-1.5-1-2.3-1-8.7-0.1-17.4 0-26.1 0-4.9 0-7.2-2.3-7.2-7.2 0-6.2 0-12.3 0-18.5 0-2.1 0.7-3.5 2.7-4.4 6.6-2.9 12.3-7.1 17.4-12.1 1.5-1.5 3.4-1.5 4.6-0.1 1.2 1.3 1 3.1-0.3 4.5-0.2 0.2-0.3 0.3-0.5 0.5-4.8 4.7-10.2 8.6-16.3 11.6-1.1 0.5-1.5 1.1-1.5 2.3 0.3 5.5 0.2 11.1 0.2 17z"/><path  d="m78.2 38.7c2.9-0.7 5.6-1.5 8.2-2.1 2-0.5 3.6 0.4 4 2.1 0.5 1.8-0.5 3.3-2.5 3.9-3.7 1.1-7.4 2.2-11 3.5-2.9 1-4.8-0.2-4.9-3.3-0.1-4 0-8 0-12 0-2.6 0-5.2 0-7.9-0.7 0-1.2-0.1-1.7-0.1-8.5 0-16.9 0-25.4 0-0.8 0-1.8 0.5-2.4 1.1-2.6 2.5-6.5 2.6-8.9 0.1-2.4-2.5-2.4-6.4 0.2-8.8 2.5-2.4 6.4-2.3 8.7 0.3 0.8 0.9 1.6 1.1 2.6 1.1 8.6 0 17.3 0 25.9 0 4.9 0 7.1 2.3 7.2 7.2 0 4.9 0 9.8 0 14.9z"/><path  d="m36.1 72.2c-3.3 0-6.5-0.1-9.8 0-0.7 0-1.6 0.4-2.1 0.9-2.6 2.7-6.5 2.9-9 0.3-2.5-2.4-2.5-6.4 0-8.8 2.5-2.5 6.5-2.3 9.1 0.4 0.5 0.5 1.3 0.9 2 0.9 5.7 0.1 11.3 0 17 0.1 1.1 0 1.7-0.3 2.3-1.3 4-6.3 9-11.8 15-16.3 1.7-1.3 3.3-1.3 4.5 0 1.3 1.4 1.1 3.4-0.7 4.8-4.4 3.4-8.3 7.3-11.6 11.8-1.2 1.6-2.3 3.3-3.3 5-0.9 1.4-2 2.1-3.7 2.1-3.3 0-6.5 0.1-9.7 0.1z"/><path  d="m158.6 127.9c5.4 0 10.5 0 15.7 0 0.4 0 0.9-0.5 1.2-0.9 2.6-2.8 6.4-2.9 9-0.4 2.5 2.4 2.5 6.3 0.1 8.8-2.5 2.5-6.5 2.3-9.1-0.3-0.5-0.5-1.4-0.9-2.1-0.9-6.3-0.1-12.5 0-18.8 0-4 0-5.3-2.1-3.4-5.6 2.7-5 4.8-10.2 6-15.8 0.1-0.4 0.2-0.7 0.3-1 0.6-1.7 2.1-2.6 3.8-2.2 1.5 0.4 2.6 2 2.1 3.7-1.2 4.3-2.6 8.5-4 12.7-0.1 0.4-0.4 1-0.8 1.9z"/><path  d="m41 127.9c-1.2-3.5-2.4-6.8-3.5-10.2-0.5-1.5-0.8-3-1.1-4.6-0.3-1.7 0.6-3.3 2.1-3.7 1.7-0.4 3.4 0.4 3.8 2.2 1.4 6.3 3.7 12.2 6.7 17.8 1.3 2.3-0.3 4.6-3.2 4.6-6.1 0-12.2 0.1-18.3 0-1.6 0-2.9 0.2-4.1 1.5-2.3 2.4-6.4 2-8.6-0.5-2.2-2.5-2.1-6.2 0.3-8.5 2.4-2.4 6.3-2.4 8.6 0.1 1 1.1 2 1.3 3.3 1.3 4.7-0.1 9.3 0 14 0z"/><path  d="m103 165c0 0.7 0 1.3 0 2 0 7.1 0 14.1 0 21.2 0 0.7 0 1.5-0.1 2.2-0.3 1.6-1.4 2.4-2.9 2.4q-2.4 0-3-2.4c-0.1-0.7-0.1-1.4-0.1-2.2 0-7.1 0-14.1 0-21.2 0-0.7 0-1.3 0-2-3.1-0.4-6.1-0.8-9.1-1.2-2.4-0.3-3.7-1.8-3.3-3.7 0.4-1.9 1.9-2.9 4.3-2.4 7.4 1.4 14.7 1.4 22.1 0 2.4-0.5 4 0.5 4.3 2.4 0.3 2-0.8 3.3-3.3 3.7-2.9 0.4-5.8 0.7-8.9 1.2z"/><path  d="m124.5 93.6c0-4.5-3.2-8-7.6-8.9-0.5-0.1-1-0.2-1.8-0.4 0-2.6 0.2-5.2 0-7.8-0.8-7.8-7.4-13.6-15.3-13.5-7.8 0-14.4 5.7-15.2 13.5-0.3 2.6 0 5.3 0 7.9-0.7 0.2-1 0.3-1.4 0.3-5.1 1-8 4.4-8 9.6q0 13.6 0 27.3c0 5.3 3.8 9.3 9.1 9.3 10.4 0.1 20.9 0.1 31.3 0 5.1 0 8.9-4 9-9 0-9.5 0-18.9-0.1-28.3zm-6.1 27.6c0 2.4-1.1 3.5-3.6 3.5q-7.5 0-15 0-7.3 0-14.7 0c-2.7 0-3.7-1-3.8-3.7 0-8.9 0-17.7 0-26.6 0-2.5 1.1-3.6 3.7-3.7q14.9 0 29.7 0c2.6 0 3.7 1.1 3.7 3.7 0 8.9 0 17.9 0 26.8zm-16.8-24.1c-4.5-0.8-8.9 1.6-10.4 5.8-1.6 4.3 0.1 9 4.1 11.2 0.9 0.5 1.5 0.9 1.7 2.1 0.2 1.5 1.3 2.3 2.9 2.3 1.6 0 2.5-0.8 3.1-2.3 0.3-0.7 0.8-1.4 1.4-1.8 3.1-1.9 4.7-4.6 4.9-8-0.1-4.6-3.3-8.5-7.7-9.3zm0 0c-4.5-0.8-8.9 1.6-10.4 5.8-1.6 4.3 0.1 9 4.1 11.2 0.9 0.5 1.5 0.9 1.7 2.1 0.2 1.5 1.3 2.3 2.9 2.3 1.6 0 2.5-0.8 3.1-2.3 0.3-0.7 0.8-1.4 1.4-1.8 3.1-1.9 4.7-4.6 4.9-8-0.1-4.6-3.3-8.5-7.7-9.3zm0 0c-4.5-0.8-8.9 1.6-10.4 5.8-1.6 4.3 0.1 9 4.1 11.2 0.9 0.5 1.5 0.9 1.7 2.1 0.2 1.5 1.3 2.3 2.9 2.3 1.6 0 2.5-0.8 3.1-2.3 0.3-0.7 0.8-1.4 1.4-1.8 3.1-1.9 4.7-4.6 4.9-8-0.1-4.6-3.3-8.5-7.7-9.3zm-10.7-20.9c0.7-4.1 4.6-7.1 8.9-7.1 4.3 0 8.2 2.8 9 6.9 0.5 2.7 0.3 5.5 0.5 8.3h-18.8c0.1-2.7 0-5.4 0.4-8.1zm8.9 33.1c-1.7-0.1-3-1.5-2.9-3.2 0.1-1.7 1.5-3 3.3-2.9 1.7 0.1 2.9 1.5 2.8 3.1-0.1 1.7-1.6 3-3.2 3zm0 0c-1.7-0.1-3-1.5-2.9-3.2 0.1-1.7 1.5-3 3.3-2.9 1.7 0.1 2.9 1.5 2.8 3.1-0.1 1.7-1.6 3-3.2 3zm0 0c-1.7-0.1-3-1.5-2.9-3.2 0.1-1.7 1.5-3 3.3-2.9 1.7 0.1 2.9 1.5 2.8 3.1-0.1 1.7-1.6 3-3.2 3z"/><path  d="m34.6 96.9c1-5.2 2-10.2 3-15.1 0.1-0.6 0.4-1.3 0.6-1.9 0.7-1.8 2.2-2.7 3.8-2.2 1.7 0.5 2.6 2.1 2.1 4-0.6 2.4-1.4 4.8-1.8 7.2-0.5 3.4-0.8 6.8-1.1 10.2-0.2 2.9-1.1 3.9-4 4-8.7 0-17.5 0-26.2 0-1.5 0-3.1-0.3-3.5-1.9-0.2-1-0.1-2.5 0.5-3.1 0.7-0.7 2.1-1.1 3.2-1.1 7.2-0.1 14.4 0 21.5 0 0.7-0.1 1.4-0.1 1.9-0.1z"/></g></svg>