<svg version="1.2" xmlns="http://www.w3.org/2000/svg" viewBox="0 0 200 200" width="200" height="200"><style></style><filter id="f0"><feFlood flood-color="#8dfcb0" flood-opacity="1" /><feBlend mode="normal" in2="SourceGraphic"/><feComposite in2="SourceAlpha" operator="in" /></filter><g filter="url(#f0)"><path  d="m97.4 89.3c2.5-1.5 4.3-2.6 6.2-3.7 5.9-3.6 7.5-3.1 10.4 3.1 3-3.7 6-7.5 9-11.3 1.4-1.8 3.1-2.5 5-0.9 1.9 1.6 1.3 3.4-0.1 5.1-2.1 2.6-4.3 5.2-6.3 7.9-1.5 2-3.2 3.3-6.6 1.7 1.6 3.7 2.9 6.7 3.9 9.3 1.5-1.1 2.8-2.4 4.5-3.2 2.7-1.4 5.5-2.7 8.4-3.4 1.3-0.3 3 0.8 4.6 1.3-0.7 1.5-1 3.9-2 4.3-4.4 1.7-8.3 5.1-13.9 4.4 1.2 2.9 2.5 5.9 3.9 9.3 1.2-3.2 3.3-3.7 6.1-3.3 3.2 0.5 6.5 0.7 9.8 0.9 2.3 0.2 4.2 1 4 3.6-0.2 2.4-2.1 3.1-4.3 2.9-4.7-0.4-9.3-1-14.3-1.5 0.2 0.5 0.4 1.1 0.6 1.7 1.5 4.2 0.5 6.3-3.9 7.5-8.1 2.1-16.2 4.1-24.2 6.2-0.8 0.2-1.6 0.5-2.7 0.9 1.6 3.8 3.2 7.4 4.7 11.1 1.3 3.2 2.1 6.2-1.6 8.6-0.8 0.5-0.9 2.4-0.9 3.6-0.1 8.5 0 16.9-0.1 25.4 0 6-3 9.4-9 9.4-23.3 0.1-46.5 0.1-69.8-0.1-5.7 0-8.6-3.1-9-8.8-0.1-0.8 0-1.7 0-2.5 0-40 0-79.9 0-119.9 0-1.5 0-2.9 0.2-4.3 0.6-4.8 3.6-7.8 8.4-7.8 23.6-0.1 47.3-0.1 70.9 0 5.3 0 8.4 3.6 8.5 9.3 0.1 9.6 0 19.1 0 28.7-0.4 1.4-0.4 2.7-0.4 4.5zm-19.5 48.7c-6.8 1.3-8 1.1-14.6-1.7-0.9-0.4-2.3-0.2-3.3 0.1-4.8 1.6-7.8 0.4-9.9-4.4-2.1-4.8-0.9-7.9 3.4-10.3 1.2-0.7 2.4-2.2 2.9-3.5 1.6-4.9 4.7-8.2 9.3-10.6 8-4.2 15.8-8.7 23.7-13.2 0.8-0.5 1.7-1.8 1.7-2.8 0.1-11.6 0.1-23.2 0.1-34.8 0-2.4-1.1-3.5-3.6-3.4-2.5 0.1-5.1-0.1-7.6 0.1-1 0.1-2.3 0.8-2.7 1.6-2.5 4.9-6.6 6.9-11.8 7q-12 0.2-24 0c-4 0-8.2-1-10-4.7-2-4-4.8-4.3-8.4-4-1 0.1-1.9 0.1-2.9 0-3.3-0.4-4.1 1.3-4.1 4.3 0.1 40.7 0.1 81.3 0 122 0 3.3 1.1 4.4 4.4 4.3 20.7-0.1 41.4 0 62.1 0 1.7 0 3.4-0.1 5.1 0 2.6 0.1 3.7-1 3.6-3.7-0.1-4.4 0-8.7 0-13.1q0-5.8 0-12c-4.6 0.8-6.7-1.3-8.1-5-1.6-4.1-3.5-8-5.3-12.2zm8.9-10.6c11-2.8 21.8-5.5 32.9-8.4-4.1-9.6-8-18.8-12.1-28.3-9.8 6-19.3 11.9-28.9 17.9 2.8 6.4 5.4 12.4 8.1 18.8zm-13.7-15.7c-5.3 1.7-10.1 3.8-10.7 10-0.4 4.1 1.4 7.4 5 9.4 4.7 2.7 9 0.8 13.2-1.8-2.6-6-5-11.8-7.5-17.6zm21.2 34.8c-1.4-3.3-2.6-6.3-3.9-9.3-1.7-4.1-2.2-4.2-6.4-1.5 1.8 4.2 3.6 8.4 5.5 12.8 1.7-0.8 3.1-1.3 4.8-2zm-57.7-93c4.1 3.1 30.9 2.8 33 0-10.8 0-21.6 0-33 0z"/><path  d="m187.4 58.5c0 3.9 0.1 7.7 0 11.6-0.1 5.6-4.2 10-9.7 10.2-8 0.2-16 0.2-23.9 0-5.5-0.1-9.8-4.6-9.9-10.1-0.1-7.9-0.2-15.7 0-23.6 0.1-5.6 4.3-9.8 10-9.9 7.9-0.2 15.7-0.2 23.6 0 5.8 0.1 9.8 4.4 10 10.2 0 0.2 0 0.5 0 0.7-0.1 3.7-0.1 7.3-0.1 10.9zm-6.3-2.1c0-3.5 0-6.1 0-8.7 0-2.9-1.6-4.6-4.4-4.7-7.4-0.1-14.7-0.2-22.1 0.1-1.5 0.1-4.1 2.2-4.1 3.5-0.4 6.9-0.2 13.9-0.2 21.7 3.1-3.4 5.6-6.1 8.2-8.8 2.2-2.3 4.6-2.5 7.1-0.6 0.8 0.6 1.7 1.3 2.8 2.1 1.8-1.9 3.5-3.8 5.3-5.6 2-2 4.4-1.3 7.4 1zm-26.9 17.3c6.5 0 12.3 0 18.9 0-4-3.3-7.4-6-10.8-8.8-2.7 2.9-5.2 5.6-8.1 8.8zm19-8.3c2.5 2 4.8 3.8 7.3 5.8 1.2-5.7 1-6.3-3.9-9.5-1 1.1-2 2.2-3.4 3.7z"/><path  d="m140 31.7c0 3.7 0 7.5 0 11.2-0.1 5.8-4.2 10.2-9.9 10.4q-12 0.3-24 0c-5.5-0.1-9.7-4.6-9.7-10.2-0.1-7.7-0.1-15.5 0-23.2 0-5.4 3.6-9.7 9-10 8.4-0.4 16.9-0.4 25.4 0 5.6 0.3 9.1 4.6 9.2 10.2 0 3.8 0 7.7 0 11.6zm-21.7 15.2q5.2 0 10.5 0c3.1 0 4.7-1.6 4.7-4.7 0-7.1 0-14.3 0-21.4 0-3.1-1.5-4.7-4.6-4.8-7.1 0-14.3 0-21.4 0-3 0-4.7 1.4-4.7 4.7 0 7.1 0 14.3 0 21.4 0 3.4 1.7 4.8 5 4.8q5.2 0 10.5 0z"/><path  d="m168.6 85.4c3.8 0 7.5-0.1 11.3 0 5.8 0.1 10.1 3.8 10.4 9.5 0.4 8.1 0.4 16.2 0.1 24.3-0.3 6.3-4.5 9.8-10.7 9.9-7.4 0.1-14.8 0.1-22.1 0-6.6-0.1-10.7-4.4-10.7-11.1-0.1-7.1-0.1-14.3 0-21.4 0.1-7 4.3-11.2 11.4-11.2 3.3 0 6.8 0 10.3 0zm-0.1 37.2c3.6 0 7.3 0 10.9 0 3 0 4.5-1.6 4.5-4.5 0.1-7.3 0-14.5 0-21.8 0-2.9-1.5-4.5-4.5-4.5-7.3 0-14.5 0-21.8 0-2.9 0-4.5 1.6-4.6 4.5 0 7.3 0 14.5 0 21.8 0 2.9 1.6 4.4 4.5 4.4 3.8 0.1 7.4 0.1 11 0.1z"/><path  d="m146.5 177.8c-3.6 0-7.3 0-10.9 0-6.1-0.1-10.4-4-10.5-10.1-0.2-7.7-0.1-15.5 0-23.2 0.1-5.9 4.2-10.1 10-10.3 7.7-0.2 15.5-0.2 23.2 0 6.2 0.2 10.3 4.4 10.5 10.8 0.2 7.4 0.2 14.8 0 22.1-0.2 6.9-4.5 10.7-11.5 10.7q-5.2 0-10.8 0zm15.9-21.8c0-3.4 0.1-6.8 0-10.1-0.1-3.8-1.4-5.2-5.3-5.2-6.6 0-13.3 0-19.9 0-4.4 0-5.7 1.4-5.7 5.9q0 9.6 0 19.2c0 4.3 1.4 5.7 5.6 5.8 6.8 0.1 13.5 0.1 20.3 0 3.8 0 5.1-1.5 5.2-5.4-0.2-3.5-0.2-6.9-0.2-10.2z"/><path  d="m53.8 171.5q5.1 0 10.2 0c2.2 0 3.9 0.8 3.9 3.3-0.1 2.5-1.8 3.1-4 3q-10.3-0.1-20.7 0c-2.1 0-3.8-0.7-3.9-2.8-0.2-2.3 1.4-3.5 3.7-3.5q5.3 0 10.8 0z"/><path  d="m156.7 46.1c2.8 0.1 4.3 1.5 4.3 4 0.1 2.5-1.5 4.1-4.1 4.1-2.6 0.1-4.2-1.5-4.2-4 0-2.4 1.4-4 4-4.1z"/><path  d="m118.1 39.8c-4.9 0-8.4-3.6-8.3-8.5 0.1-4.6 3.8-8.2 8.4-8.2 4.8 0 8.4 3.8 8.3 8.6-0.1 4.7-3.6 8.1-8.4 8.1z"/><path  d="m126.7 26c-1.1-1.6-2.9-3-3.1-4.7-0.4-2.3 1.4-4.1 3.9-4.1 2.7 0 4.6 1.7 4.2 4.2-0.3 1.7-2.1 3.1-3.3 4.6-0.5 0-1.1 0-1.7 0z"/><path  d="m158.8 107c0-1.8-0.1-3.6 0-5.4 0.2-4 3.1-6.1 6.7-4.3 3.8 1.9 7.4 4 11 6.3 2.9 1.9 2.8 5.7-0.2 7.6-3.6 2.3-7.2 4.4-11 6.3-3.2 1.6-6.2-0.3-6.4-3.9-0.2-2.2-0.1-4.4-0.1-6.6zm6.6-2.4c0 2 0 3.4 0 5.4 1.7-1 2.9-1.8 4.6-2.8-1.8-1-3-1.6-4.6-2.6z"/><path  d="m151.4 158.4h-7.7v8.1c0 1.1-0.9 2.1-2.1 2.1h-1c-1.1 0-2.1-0.9-2.1-2.1v-20.6c0-1.1 0.9-2.1 2.1-2.1h12c1.1 0 2.1 0.9 2.1 2.1 0 1.1-0.9 2.1-2.1 2.1h-9v6.4h7.7c1.1 0 2.1 0.9 2.1 2.1 0.1 1-0.9 1.9-2 1.9z"/></g></svg>