<svg version="1.2" xmlns="http://www.w3.org/2000/svg" viewBox="0 0 200 200" width="200" height="200"><style></style><filter id="f0"><feFlood flood-color="#8dfcb0" flood-opacity="1" /><feBlend mode="normal" in2="SourceGraphic"/><feComposite in2="SourceAlpha" operator="in" /></filter><g filter="url(#f0)"><path  d="m32.5 89.3c-10.7-1.3-18.5-6.4-22.9-16-6.3-13.9 0.5-30.1 14.8-35.7 1.1-0.4 1.6-0.9 1.7-2.2 1.9-15.5 14.4-27.4 29.6-28.1 15.8-0.7 29.2 9.7 32.5 25.2q0.3 1.5 0.6 3.3c3.6 0 7.1-0.1 10.6 0 14.9 0.3 26.8 12.9 26.1 27.9-0.6 13.1-10.5 24.3-25.1 25.7 0 0.6 0 1.3 0 1.9 0 6.7-0.1 13.4 0 20.1 0.1 3.8-1.5 6.3-4.5 8.2-3.7 2.3-7.7 3.5-11.9 4.3-13.5 2.5-26.9 2.5-40.1-1.3-2.8-0.8-5.4-2.2-7.9-3.7-2.4-1.5-3.5-3.8-3.5-6.8 0.1-6.9 0-13.8 0-20.6 0-0.9 0-1.5 0-2.2zm67.9-5.5c10.3-0.2 19.3-9.6 19.9-20.4 0.6-12.2-9.1-22.3-21.7-22.4-3.9 0-7.8 0-11.6 0-2.4 0-3.2-0.9-3.4-3.3-0.1-1.2-0.2-2.5-0.4-3.7-2.2-12.9-14.5-22.3-27.7-21.4-13.1 0.9-23.8 11.9-24.2 24.8-0.1 3.2-0.3 3.5-3.4 4.4-8.4 2.5-14.6 10.3-15.3 19-0.7 8.7 4.2 17.2 12.1 21 2.4 1.2 4.9 2 7.8 2 0-0.8 0-1.5 0-2.2 0-9.5 0.1-19 0-28.5 0-3 1.1-5.4 3.5-6.8 2.4-1.5 5-2.9 7.7-3.7 13.5-3.9 27.1-4 40.8-1.2 3.9 0.8 7.7 2.4 11.4 4.2 3.2 1.5 4.6 4.4 4.6 8.1-0.1 9.3 0 18.6 0 28-0.1 0.6-0.1 1.3-0.1 2.1zm-62.7-4.2c0 4 0.1 7.8 0 11.6-0.1 1.7 0.5 2.9 2 3.5 2.5 1.1 5 2.3 7.6 3 11.2 2.9 22.5 3 33.9 1 4.1-0.7 8-2.4 11.8-3.9 0.9-0.3 2-1.6 2-2.4 0.2-4.2 0.1-8.3 0.1-12.7-9.3 4.3-18.9 5.3-28.7 5.3-9.8-0.1-19.4-1.1-28.7-5.4zm0 20.6c0 3.8 0.1 7.7 0 11.5 0 1.4 0.4 2.4 1.6 2.9 2.2 1.1 4.4 2.3 6.7 2.9 11.8 3.3 23.7 3.5 35.7 1.2 3.9-0.7 7.6-2.3 11.3-3.7 0.9-0.3 2.1-1.5 2.1-2.4 0.2-4.2 0.1-8.4 0.1-12.5-19.3 6.9-38.3 6.9-57.5 0.1zm57.4-40.5c-19.2 6.8-38.2 6.8-57.4 0 0 3.7 0.1 7.6 0 11.4 0 1.5 0.5 2.6 1.8 3.2 2.1 1 4.1 2.1 6.3 2.7 11.8 3.3 23.8 3.5 35.8 1.2 3.9-0.7 7.7-2.4 11.4-3.9 0.9-0.4 1.9-1.8 2-2.8 0.2-3.8 0.1-7.8 0.1-11.8zm-30.5-0.2c8.1 0 16-0.5 23.5-3 2.1-0.7 4.1-1.8 6-3 1.2-0.7 1.3-1.9 0-2.7-1.5-1-3.1-1.9-4.8-2.6-5.2-2-10.7-2.8-16.3-3.2-9.3-0.6-18.6-0.3-27.6 2.5-2.3 0.7-4.6 2-6.7 3.2-1.3 0.7-1.4 2 0 2.8 1.5 1 3.1 1.9 4.8 2.5 6.9 2.6 14.1 3.2 21.1 3.5z"/><path  d="m192.7 152.6c0 22.2-18.2 40.2-40.3 40.1-22.1-0.1-40-18.1-40-40.2 0-22.2 18.1-40.2 40.3-40.1 22.1 0.1 40.1 18.1 40 40.2zm-18.3 2.7c-1 5.8-1.9 11.4-2.8 17.1 2.2 0.7 4.5 1.6 6.9 2.3 0.4 0.1 1.1-0.1 1.4-0.5q6.6-8.3 7.5-18.9c-4.5 0-8.9 0-13 0zm-43.7 0c-4.1 0-8.5 0-12.9 0q0.9 10.6 7.5 18.9c0.2 0.3 0.9 0.6 1.2 0.5 2.5-0.8 4.9-1.6 7.1-2.4-1-5.7-2-11.3-2.9-17zm0-5.5c0.9-5.7 1.8-11.2 2.7-16.7-1.1-0.3-2.4-0.7-3.7-1.2-4.6-1.5-4.6-1.5-7.1 2.7-2.8 4.7-4.5 9.7-4.8 15.2q6.7 0 12.9 0zm41-16.6c0.9 5.6 1.8 11.1 2.7 16.6q6.3 0 12.9 0c-0.5-7-2.9-13.1-7.1-18.5-0.3-0.4-1.1-0.6-1.5-0.5-2.4 0.8-4.7 1.6-7 2.4zm-33 38c4-0.4 7.6-0.8 11.1-1.1 0-5 0-9.9 0-14.8-4.5 0-8.9 0-13.8 0 0.9 5.5 1.8 10.7 2.7 15.9zm16.6-16c0 5.1 0 10 0 14.9 3.6 0.4 7.1 0.7 10.5 1 1.7-3.6 3.2-13 2.6-15.9-4.3 0-8.6 0-13.1 0zm-19.3-5.4c4.9 0 9.3 0 13.8 0 0-4.8 0-9.6 0-14.3-3.7-0.4-7.2-0.7-11.2-1.1-0.9 5.1-1.7 10.1-2.6 15.4zm19.3-14.3c0 4.8 0 9.6 0 14.3 4.5 0 9 0 13.9 0-0.9-5.3-1.8-10.3-2.6-15.4-4.1 0.4-7.6 0.7-11.3 1.1zm-5.4-16.1c-4.5 1.9-6.8 5.6-9 9.9 3.1 0.3 6 0.5 9 0.8 0-3.7 0-7 0-10.7zm5.4 10.8c3-0.3 5.8-0.5 9-0.8-2.2-4.2-4.5-8-9-9.9 0 3.6 0 7 0 10.7zm-5.5 55.4c0-3.5 0-6.8 0-10.2-2.9 0.3-5.7 0.5-8.6 0.8 2 4.1 4.3 7.6 8.6 9.4zm5.5-10.2c0 3.6 0 6.8 0 10.3 4.3-2 6.6-5.4 8.7-9.5-3.1-0.3-5.8-0.5-8.7-0.8zm-25.6-49.6c0.1 0.2 0.2 0.5 0.2 0.7 1.9 0.6 3.8 1.1 5.5 1.6 1.7-2.8 3.3-5.5 4.9-8.2-0.1-0.1-0.2-0.3-0.3-0.4-3.4 2.2-6.9 4.2-10.3 6.3zm45.6 0.7c0.1-0.2 0.1-0.5 0.2-0.7-3.5-2.1-7-4.2-10.5-6.2-0.1 0.1-0.1 0.3-0.2 0.4 1.6 2.7 3.2 5.4 5 8.2 1.8-0.5 3.6-1.1 5.5-1.7zm-5.8 50.8c-1.7 2.7-3.2 5.2-4.9 8 3.9-1.5 7.4-3.4 10.6-6.3-2.1-0.6-3.9-1.1-5.7-1.7zm-33.9 0c-1.8 0.5-3.6 1.1-5.4 1.6 0 0.2-0.1 0.5-0.1 0.7 3.4 1.9 6.7 3.9 10.1 5.8 0.1-0.1 0.1-0.3 0.2-0.4-1.6-2.5-3.2-5-4.8-7.7z"/><path  d="m73 142.4c-1.1 1.3-1.8 2.2-2.6 3.1-1.1 1.3-2.7 1.5-3.8 0.5-1.2-1-1.3-2.5-0.3-3.8 2.3-2.9 4.7-5.8 7.1-8.7 1.3-1.6 3-1.5 4.3 0 2.4 2.9 4.8 5.8 7.1 8.7 1.1 1.3 0.9 3-0.4 3.8-1.3 0.9-2.6 0.7-3.7-0.5-0.8-0.9-1.5-1.8-2.5-3-0.1 0.6-0.2 1-0.2 1.3 0 6.4 0 12.7 0 19.1 0 6.1 4.5 10.5 10.6 10.5q8.2 0 16.5 0c0.6 0 1.1-0.1 1.7 0.1 1.4 0.3 2.2 1.2 2.1 2.7-0.1 1.5-0.9 2.4-2.4 2.4-6.7 0-13.4 0.4-20.1-0.1-7.8-0.6-13.6-7.4-13.7-15.3 0.2-6.6 0.3-13.4 0.3-20.8z"/><path  d="m165 94.5c0-7.6 0.1-14.6 0-21.6-0.1-4.6-3.9-8.7-8.5-9.4-1-0.2-2.1-0.2-3.2-0.2-5.4 0-10.9 0-16.3 0-1.8 0-2.9-1-2.8-2.5 0-1.7 1-2.6 2.6-2.6 6.9 0 13.8-0.3 20.6 0.3 7.1 0.6 12.8 7.4 12.9 14.6 0.1 6.4 0 12.8 0 19.1 0 0.6 0 1.2 0 2.4 1.1-1.3 1.8-2.1 2.5-3 1.3-1.4 2.7-1.6 3.9-0.6 1.2 1 1.3 2.4 0.2 3.8-2.3 2.9-4.7 5.8-7.1 8.7-1.3 1.5-2.9 1.5-4.2 0-2.5-2.9-4.9-5.9-7.3-8.8-1-1.3-0.9-2.6 0.3-3.7 1.3-1.1 2.6-0.8 3.7 0.3 0.8 0.9 1.5 1.9 2.7 3.2z"/><path  d="m50.6 90.3c0 2-1.6 3.6-3.5 3.6-1.9 0-3.6-1.7-3.6-3.6 0-1.9 1.6-3.5 3.6-3.5 2-0.1 3.5 1.5 3.5 3.5z"/><path  d="m50.6 110.4c0 2-1.5 3.5-3.5 3.6-2 0-3.6-1.6-3.6-3.5 0-1.9 1.7-3.6 3.6-3.6 1.9-0.1 3.5 1.5 3.5 3.5z"/><path  d="m50.6 70c0 2-1.5 3.6-3.5 3.7-1.9 0-3.6-1.6-3.7-3.5-0.1-1.9 1.5-3.6 3.5-3.6 2.1-0.1 3.6 1.4 3.7 3.4z"/></g></svg>