<svg version="1.2" xmlns="http://www.w3.org/2000/svg" viewBox="0 0 200 200" width="200" height="200"><style>.a{fill:none}</style><filter id="f0"><feFlood flood-color="#8dfcb0" flood-opacity="1" /><feBlend mode="normal" in2="SourceGraphic"/><feComposite in2="SourceAlpha" operator="in" /></filter><g filter="url(#f0)"><path  d="m100 46.7c2.7 0 5.2 0.9 7.1 2.4 1.4 1 2.5 2.3 3.3 3.8l13.1 22.9 0.1 0.2 10.1 17.4c1.1 1.8 1.6 3.9 1.6 6 0 1.7-0.3 3.2-1 4.7-0.5 1.1-1.1 2-1.9 2.9-0.9 1-1.9 1.9-3.1 2.6-1.7 1-3.7 1.6-5.7 1.6h-0.2c-2.6 0-5-0.8-7.1-2.4-1.4-1-2.5-2.3-3.3-3.8l-13-22.9-0.1-0.2-10.1-17.5c-1-1.8-1.6-3.8-1.6-5.9q0-1.8 0.6-3.6v-0.1-0.1c0.2-0.5 0.3-1 0.3-1 0.5-1.1 1.1-2 1.8-2.9l0.2-0.2c0.8-0.9 1.7-1.6 2.8-2.3 1.7-1 3.7-1.6 5.7-1.6zm-23.5 64.5h-0.2c-2 0-4-0.6-5.7-1.6-1.2-0.7-2.2-1.5-3.1-2.6-0.8-0.9-1.4-1.9-1.9-2.9-0.6-1.5-1-3.1-1-4.7 0-2.2 0.6-4.2 1.6-6l10.1-17.4 0.1-0.2 8.9-15.6c0.2 1.9 0.8 3.8 1.7 5.5l0.2 0.3 9.9 17.2 0.2 0.4 0.8 1.5-11.2 19.9c-0.8 1.5-1.9 2.8-3.3 3.8-2.1 1.5-4.5 2.4-7.1 2.4z"/><path  d="m100.9 135.3c-5.5-7.3-10.3-10.1-15.8-10.1-11.6 0-20.4 15.3-20.4 31.4 0 10.1 4.8 16.3 12.8 16.3 5.8 0 9.8-2.8 17.3-15.8 0 0 3-5.5 5.3-9.3 0.8 1.3 1.5 2.5 2.3 4l3.5 6c6.8 11.6 10.6 15.3 17.3 15.3 7.8 0 12.1-6.5 12.1-16.8-0.3-17.1-9.3-31.2-20.1-31.2-5.8 0.2-10.3 4.7-14.3 10.2zm10.8 17.1l-4.3-7c-1-1.8-2.3-3.5-3.3-5 3.8-5.8 6.8-8.8 10.6-8.8 7.5 0 13.6 11.3 13.6 25.4 0 5.3-1.8 8.3-5.3 8.3-3.5 0-4.8-2.3-11.3-12.9zm-39.5 4.3c0-11.6 5.8-23.6 12.6-23.6 3.8 0 6.8 2.3 11.6 9-4.5 7-7.3 11.3-7.3 11.3-6.1 9.6-8.1 11.6-11.3 11.6-3.3 0.3-5.6-2.8-5.6-8.3z"/><path  d="m132.9 121.9h-65.8c-1.3 0-2.4-1.1-2.4-2.4 0-1.3 1.1-2.4 2.4-2.4h65.8c1.3 0 2.4 1.1 2.4 2.4 0 1.3-1.1 2.4-2.4 2.4z"/><path  d="m170 174.8c-0.7-0.8-1.5-1.5-2-2.3-1.7-2.7-3.2-5.4-4.9-8.3-1.5 1.7-2.9 3.3-4.3 4.8-1 1.1-2.3 2.1-3.6 1.3-0.8-0.5-1.3-2-1.4-3.1-0.8-9.3-1.5-18.5-2.3-27.8 0-0.5-0.2-1.1-0.1-1.6 0.1-0.6 0.3-1.4 0.7-1.7 0.3-0.2 1.1 0 1.6 0.3 8.3 5.7 16.7 11.3 25 17 0.7 0.5 1.1 1.2 1.7 1.9 0 0.3 0 0.5 0 0.8-1.2 0.8-2.3 1.9-3.7 2.3-1.8 0.6-3.7 0.9-5.8 1.3 1.7 2.9 3.2 5.6 4.8 8.3 1.6 2.7 1.5 2.9-1.1 4.4-1.4 0.8-2.7 1.6-4.1 2.3-0.3 0.1-0.4 0.1-0.5 0.1z"/><path  d="m195.9 21.9c0-11.2-3.7-15-14.8-15-53.9 0-107.7 0-161.6 0-10.9 0-15 4.1-15 15 0 51.3 0 102.5 0 153.8 0 11.1 4.1 15.1 15.4 15.1 47.2 0 94.3 0 141.5 0h4.9c-0.6-2.4-1.2-4.7-1.9-7.1h-151.8v-168.6h99.2v27.7h77.2l0.1 24.7c1.8 1.2 4.1 2.1 6.8 3.4 0-16.9 0-32.9 0-49zm-69.9 11.1c-3.7-0.1-6.9-3.3-6.9-7.1 0-4.1 3.1-7.1 7.3-6.9 3.8 0.1 6.9 3.4 6.8 7.1-0.1 3.7-3.6 7-7.2 6.9zm21.2 0c-3.9 0-7.1-3.4-7-7.4 0.2-3.9 3.2-6.7 7.2-6.6 3.8 0.1 7 3.3 6.9 7 0 3.6-3.5 7-7.1 7zm21.4 0c-3.9 0.2-7.3-3.2-7.3-7.2 0-3.9 3.1-6.8 7-6.8 3.8 0 7.1 3.1 7.2 6.8 0.1 3.6-3.3 7.1-6.9 7.2z"/><path fill-rule="evenodd" class="a" d="m189.1 67.5"/></g></svg>