<svg version="1.2" xmlns="http://www.w3.org/2000/svg" viewBox="0 0 200 200" width="200" height="200"><style></style><filter id="f0"><feFlood flood-color="#8dfcb0" flood-opacity="1" /><feBlend mode="normal" in2="SourceGraphic"/><feComposite in2="SourceAlpha" operator="in" /></filter><g filter="url(#f0)"><path  d="m153.5 45.4c0-3.1 0-5.3 0-7.9-38.3 0-76.6 0-115.5 0 0 2.4 0.3 4.8-0.1 7.1-0.2 1-1.7 1.8-2.6 2.7-0.8-1-2.3-1.9-2.3-2.9-0.1-9.1-0.4-18.2 0.3-27.2 0.6-7.1 7.5-12.9 14.6-13.7 3.3-0.4 6.6-0.3 9.9-0.3 27 0 54 0 81.1 0 13.4 0 20.2 6.8 20.3 20.3 0.1 7 0 13.9 0 21.8 3.8 0 7.2 0 10.6 0 4.7 0 9.4-0.1 14.1 0 8.9 0.1 14.5 5.5 14.5 14.3 0.1 26.2 0.1 52.3 0 78.5 0 8.4-5.7 14-14.2 14.1-8.1 0.1-16.3 0-25 0 0 8.4 0 16.2 0 24-0.1 13.6-6.7 20.3-20.2 20.4-28.8 0.1-57.5 0.1-86.3 0-13.1 0-19.9-6.9-19.9-20.1 0-11.9-0.1-23.7 0.1-35.6 0-2.2 1.7-6.2 2.4-6.2 4.2 0.3 2.7 4 2.8 6.5 0.2 5.9 0.1 11.8 0.1 18.1 38.6 0 76.8 0 115.3 0 0-2.2 0-4.2 0-7.1q-2.7 0-5.4 0-20.4 0-40.8 0c-10.1 0-15.6-5.5-15.6-15.5 0-25.3 0-50.6 0-75.8 0-10.1 5.3-15.5 15.4-15.5 13.4-0.1 26.8 0 40.3 0 1.8 0 3.7 0 6.1 0zm-8.5 5.3c-12.7 0-25.4 0-38.2 0-6.8 0-9.9 3.1-9.9 9.9-0.1 25.4-0.1 50.9 0 76.3 0 6.7 3.2 9.9 10 9.9 25.4 0.1 50.9 0.1 76.3 0 6.7 0 9.8-3.3 9.9-10 0-25.4 0-50.9 0-76.3 0-6.8-3.1-9.8-10-9.8q-19 0-38.1 0zm8.4 114.7c-38.5 0-76.7 0-115.3 0 0 3.8 0 7.3 0 10.7 0 10.8 4.3 15 15.3 15 7.8 0 15.7 0 23.5 0 21.1 0 42.2 0 63.2 0 7.4 0 12.6-3.7 13.2-10 0.6-5 0.1-10.2 0.1-15.7zm-115.2-133.9c38.8 0 76.9 0 115.6 0 0-2.6 0-4.8 0-7 0-11.7-4.1-15.8-15.7-15.8-18.8 0-37.7 0-56.5 0-10.3 0-20.6-0.1-30.9 0-6.9 0.1-12 4.5-12.5 10.9-0.2 3.8 0 7.7 0 11.9z"/><path  d="m57.2 120c-6-4.6-8.7-1-11.8 5.2-2.4 4.7-13.6 2.8-15.4-2.3-1.6-4.5-3.6-6-8-3.3-3.7 2.3-6.5 0.4-9.2-2.3-2.9-2.9-5.3-5.7-2.9-10 2.2-3.8 1.3-6.2-3-7.4-4.4-1.1-5.3-4.3-5.4-8.4 0-4.1 0.4-7.8 5-9.1 4.2-1.2 5.3-3.4 3.1-7.3-2.4-4.1-0.5-7.1 2.4-10.1 3-3.1 6-4.6 10.1-2.2 3.4 2 5.7 1 6.6-2.8 1.2-4.9 4.7-5.9 9.1-5.9 4.3 0 7.5 1.1 8.7 5.7 1 3.8 3.3 4.7 6.6 2.7 4.3-2.6 7.4-0.9 10.6 2.2 3.1 3 4.5 6 2.2 10.1-1.9 3.3-1 5.6 2.8 6.6 4.4 1.2 5.9 4.2 5.9 8.6 0 4.4-0.8 7.9-5.7 9.2-4.1 1.1-4.3 3.6-2.6 7.2 3 5.6-2.2 13.6-9.1 13.6zm-32-7.8q0.6-0.4 1.2-0.9c2.6 2.6 5.2 5.2 7.9 7.6 1.3 1.2 2.9 3 4.4 2.9 1.4 0 3.4-1.8 4-3.3 2.2-5.2 7.3-7.4 12.5-5.3 1.5 0.6 4.1 0.4 5.1-0.6 1-1 1.4-3.7 0.8-5.1-2.3-5.5-0.3-10.5 5.1-12.9 1.5-0.6 3.2-2.8 3.1-4.2 0-1.4-1.8-3.4-3.3-4-5.2-2.1-7.9-7.5-5.3-12.3 1.3-2.4 1.7-4.4-0.8-5.7-1.5-0.7-3.8-1-5.2-0.4-5.2 2.2-10.2 0.2-12.5-5-0.7-1.5-2.7-3.2-4.1-3.3-1.4 0-3.5 1.7-4.2 3.2-2.4 5.5-7.2 7.6-12.8 5.4-1.4-0.5-4-0.4-4.8 0.6-1 1.2-1.5 3.7-0.9 5.2 2.3 5.7 0.4 10.5-5.1 13-1.4 0.6-3 2.8-3 4.2 0.1 1.4 1.8 3.4 3.3 4 5.4 2.2 7.5 7.2 5.2 12.8-0.5 1.3-0.2 3.9 0.7 4.7 1.2 1 3.4 1.1 5.2 1 1 0 2.2-1 3.5-1.6z"/><path  d="m144.5 83.1c-11.5 0-23-0.1-34.5 0.1-3.8 0.1-5.4-1.2-5.3-5.1 0.2-4.9 0.1-9.8 0-14.6-0.1-3.5 1.1-5.1 4.8-5.1q35.6 0.1 71.1 0c3.7 0 4.9 1.7 4.8 5.1-0.1 4.9-0.1 9.8 0 14.6 0.1 3.9-1.6 5.1-5.4 5.1-11.8-0.2-23.7-0.1-35.5-0.1zm-34.2-5.7c23.5 0 46.4 0 69.2 0 0-4.7 0-8.9 0-13.2-23.3 0-46.2 0-69.2 0 0 4.6 0 8.8 0 13.2z"/><path  d="m169.6 113.4c-3.5 0-7-0.1-10.4 0-3.7 0.2-5.5-1.1-5.4-5 0.2-5 0.1-10.1 0-15.1-0.1-3.2 1.2-4.8 4.6-4.7 7.5 0.1 14.9 0.1 22.4 0 3 0 4.6 1.1 4.6 4.2 0 5.4-0.1 10.8 0 16.2 0 3.4-1.7 4.6-4.9 4.5-3.6-0.2-7.3-0.1-10.9-0.1zm-10-5.6c6.9 0 13.3 0 20 0 0-4.7 0-9 0-13.5-6.9 0-13.2 0-20 0 0 4.5 0 8.8 0 13.5z"/><path  d="m120.1 113.4c-3.6 0-7.3-0.1-10.9 0-3 0.1-4.5-1.2-4.5-4.3q0.2-8.1 0-16.2c0-3 1.3-4.4 4.4-4.4 7.6 0.1 15.3-0.2 22.9 0.2 1.5 0.1 4 2.4 4.1 3.8 0.5 5.5 0.5 11.1 0 16.6-0.1 1.5-2.5 3.7-4 3.9-3.9 0.8-8 0.4-12 0.4zm10.5-19.1c-6.8 0-13.3 0-20 0 0 4.7 0 9 0 13.4 6.9 0 13.4 0 20 0 0-4.6 0-8.9 0-13.4z"/><path  d="m96.3 169.6c-4.8-0.2-8.7 3.4-9 8.2-0.2 5.1 3.5 9.1 8.5 9.1 4.8 0 8.6-3.6 8.8-8.4 0.1-4.8-3.5-8.7-8.3-8.9zm-0.3 13.3c-2.6 0-4.7-2.1-4.7-4.7 0-2.6 2.1-4.7 4.7-4.7 2.6 0 4.7 2.1 4.7 4.7-0.1 2.6-2.2 4.7-4.7 4.7z"/><path  d="m96.2 17.4c3.8 0 7.7-0.2 11.5 0.1 1.3 0.1 2.6 1.6 3.8 2.5-1.2 0.9-2.4 2.5-3.7 2.5q-12 0.3-24 0c-1.2 0-2.4-1.7-3.6-2.7 1.1-0.8 2.3-2.3 3.5-2.4 4.2-0.1 8.3 0 12.5 0z"/><path  d="m38.3 73.7c9.7 0 17.7 8.1 17.6 17.6-0.1 9.6-8.2 17.5-17.8 17.5-9.7 0-17.6-8-17.5-17.7 0-9.6 7.9-17.4 17.7-17.4zm0 29.8c6.8-0.1 12.3-5.7 12.1-12.4-0.1-6.7-5.8-12.1-12.6-12-6.7 0.1-12.2 5.7-12.1 12.4 0.2 6.7 5.9 12.1 12.6 12z"/><path  d="m134 123h-26.9c-1.3 0-2.4-1.1-2.4-2.4v-0.3c0-1.3 1.1-2.4 2.4-2.4h26.9c1.3 0 2.4 1.1 2.4 2.4v0.3c0.1 1.3-1 2.4-2.4 2.4z"/><path  d="m126.2 130.9h-19.1c-1.3 0-2.4-1.1-2.4-2.4v-0.3c0-1.3 1.1-2.4 2.4-2.4h19.1c1.3 0 2.4 1.1 2.4 2.4v0.3c0 1.3-1.1 2.4-2.4 2.4z"/><path  d="m183 123h-26.9c-1.3 0-2.4-1.1-2.4-2.4v-0.3c0-1.3 1.1-2.4 2.4-2.4h26.9c1.3 0 2.4 1.1 2.4 2.4v0.3c0.1 1.3-1 2.4-2.4 2.4z"/><path  d="m175.2 130.9h-19.1c-1.3 0-2.4-1.1-2.4-2.4v-0.3c0-1.3 1.1-2.4 2.4-2.4h19.1c1.3 0 2.4 1.1 2.4 2.4v0.3c0 1.3-1.1 2.4-2.4 2.4z"/></g></svg>