<svg version="1.2" xmlns="http://www.w3.org/2000/svg" viewBox="0 0 200 200" width="200" height="200"><style></style><filter id="f0"><feFlood flood-color="#8dfcb0" flood-opacity="1" /><feBlend mode="normal" in2="SourceGraphic"/><feComposite in2="SourceAlpha" operator="in" /></filter><g filter="url(#f0)"><path  d="m194.1 35.5c0-16.8-11.3-28.1-28-28.2-44 0-87.9 0-131.9 0-17.1 0-28.3 11.3-28.3 28.4q0 21.3 0 42.6v42.4q0 21.7 0 43.5c0 17.1 11.2 28.4 28.3 28.4 21.9 0.1 43.8 0 65.7 0 22.1 0 44.1 0 66.2 0 16.7 0 28-11.4 28-28.1q0-21.9 0-43.8v-43.8q0-20.7 0-41.4zm-8.9 85.2q0 21.9 0 43.8c0 12.1-7.3 19.6-19.5 19.6-21.9 0.1-43.8 0-65.7 0-21.1 0-42.2-0.4-63.2 0.2-13.7 0.4-22.5-8.4-22.1-21.8 0.3-13.9 0.4-27.9 0.3-41.8v-42.4c0-14.3-0.1-28.5-0.1-42.8 0-12.1 7.3-19.6 19.5-19.6q65.7-0.2 131.4 0c12.1 0 19.4 7.6 19.4 19.6q0 20.7 0 41.4z"/><path  d="m112.5 148c0-7.1-0.1-14.3 0-21.4 0.1-5.5 2.7-7.2 7.7-4.7 14 7.1 28 14.3 41.9 21.6 1.6 0.8 3.6 2.8 3.5 4.1-0.1 1.7-1.9 3.8-3.5 4.7-13.9 7.4-27.9 14.5-41.9 21.7-4.9 2.5-7.6 0.9-7.6-4.7-0.2-7-0.1-14.2-0.1-21.3zm39.8 0c-10.7-5.5-20.6-10.6-30.8-15.8 0 10.9 0 21 0 31.7 10.4-5.4 20.2-10.4 30.8-15.9z"/><path  d="m100 101.7c-17.9 0-35.9 0-53.8 0-3.2 0-6.4-0.2-6.3-4.4 0.1-3.9 3.4-4 6.3-4 35.9 0 71.7 0 107.6 0 3.1 0 6.5 0.2 6.3 4.5-0.2 3.9-3.3 3.9-6.3 3.9-17.9 0-35.9 0-53.8 0z"/><path  d="m100 69.8c-17.9 0-35.9 0-53.8 0-3.2 0-6.4-0.2-6.3-4.4 0.1-3.9 3.4-4 6.3-4 35.9 0 71.7 0 107.6 0 3.1 0 6.5 0.2 6.3 4.5-0.2 3.9-3.3 3.9-6.3 3.9-17.9 0-35.9 0-53.8 0z"/><path  d="m100 37.9c-17.9 0-35.9 0-53.8 0-3.2 0-6.4-0.2-6.3-4.4 0.1-3.9 3.4-4 6.3-4 35.9 0 71.7 0 107.6 0 3.1 0 6.5 0.2 6.3 4.5-0.2 3.9-3.3 3.9-6.3 3.9-17.9 0-35.9 0-53.8 0z"/><path  d="m68.7 135.5q-11.4 0-22.8 0c-3.1 0-5.9-0.7-5.9-4.4 0-3.7 2.9-4.3 6-4.3 15.2 0 30.5 0 45.7 0 2.9 0 5.5 0.7 5.7 4.1 0.1 3.7-2.6 4.6-5.7 4.6-7.7 0.1-15.4 0-23 0z"/><path  d="m68.6 160.7c7.8 0 15.6-0.2 23.4 0.2 1.8 0.1 4.8 2.1 5.1 3.7 0.8 3.4-2.2 4.4-5.1 4.4q-23.4 0.1-46.8 0c-2.9 0-5.5-0.9-5.3-4.4 0.2-3.5 2.9-3.9 5.8-3.9 7.6 0 15.3 0 22.9 0z"/></g></svg>