<svg version="1.2" xmlns="http://www.w3.org/2000/svg" viewBox="0 0 200 200" width="200" height="200"><style></style><filter id="f0"><feFlood flood-color="#8dfcb0" flood-opacity="1" /><feBlend mode="normal" in2="SourceGraphic"/><feComposite in2="SourceAlpha" operator="in" /></filter><g filter="url(#f0)"><path  d="m60.9 133.3c-1 0-1.8 0-2.5 0q-23.4 0-46.8 0c-6.4 0-9.8-3.4-9.8-9.7 0-30.5 0-61.1 0-91.6 0-7.6 4.5-12.1 12.2-12.1 50.2 0 100.3 0 150.5 0 7.7 0 12.2 4.5 12.2 12.3q0 31.9 0 63.9c0 1.8 0.5 2.8 2.1 3.8 4.7 2.7 5.9 6.4 4.1 11.6-0.2 0.6-0.1 1.6 0.2 2.2 1.8 3.2 3.6 6.4 5.5 9.5 0.4 0.6 1.2 1.2 1.9 1.3 5.2 1.1 7.7 4 7.7 9.4 0 2.7 0 5.3 0 8-0.1 4.4-3.1 7.9-7.5 8.4-1.4 0.2-1.9 0.8-2.5 1.9-1.6 2.9-3.4 5.7-4.9 8.6-0.4 0.8-0.6 2.1-0.3 2.9 1.6 4.5 0.3 8.6-3.8 11-2.5 1.5-5 2.9-7.5 4.3-4.1 2.2-8.2 1.3-11.3-2.3-0.6-0.7-1.7-1.1-2.7-1.1-3.4-0.1-6.8-0.1-10.1 0-0.9 0-2.1 0.4-2.7 1.1-3.1 3.7-7.2 4.5-11.4 2.2-2.1-1.2-4.2-2.5-6.4-3.7-3.3-1.7-5.4-4.3-5.4-8.5-0.9 0-1.7 0-2.6 0q-44.9 0-89.7 0c-0.6 0-1.3 0-1.9 0-2.2-0.2-3.7-1.8-3.6-3.8 0.1-2 1.5-3.4 3.6-3.5 2.5-0.1 5.1 0.1 7.6-0.1 0.6 0 1.6-0.6 1.8-1.2 3-7.4 8.2-11 16.4-11.1 3.8 0 3.8 0 4.9-3.8 0.9-3.3 1.8-6.5 2.7-9.9zm108.3-83.7c-53.4 0-106.6 0-160 0 0 0.9 0 1.6 0 2.3 0 23.7 0 47.3 0 71 0 3 0 3 3 3 24.7 0 49.4 0.2 74-0.2 9.5-0.1 19.1 1.7 28.5-1.5 1.2-0.4 1.9-0.8 2.5-2 1.5-2.9 3.2-5.8 5-8.6 0.7-1.1 0.8-1.9 0.3-3.1-1.8-4.1-0.3-8.4 3.5-10.7 2.5-1.5 5-2.9 7.5-4.3 4.3-2.4 8.4-1.6 11.6 2.2 0.5 0.6 1.5 1 2.3 1 3.5 0.1 7 0.1 10.6 0 0.7 0 1.7 0 1.9-0.4 2.3-3.2 5.5-4.2 9.2-3.8 0.1-15 0.1-29.9 0.1-44.9zm-2.5 123.6c0.2-0.2 0.5-0.4 0.7-0.6 0.4-0.2 0.8-0.3 1.2-0.5 2.1-1.2 4.1-2.4 6.2-3.5 1.3-0.7 1.5-1.5 0.9-2.8-1.3-3.1-0.7-6 1.1-8.8 1.8-2.7 3.5-5.6 4.9-8.6 1.5-3.1 3.8-5 7.3-5.4 1.2-0.1 1.8-0.5 1.8-1.8 0-2.5-0.1-5.1 0-7.6 0-1.2-0.5-1.7-1.6-1.8-3.8-0.4-6-2.6-7.5-6-1.3-2.7-2.8-5.4-4.5-7.9-2.1-3-2.8-6-1.3-9.3 0.5-1.1 0.4-1.9-0.8-2.5-2.3-1.3-4.5-2.6-6.7-3.9-1-0.6-1.7-0.3-2.3 0.6-2.1 3-5 4.1-8.6 3.8q-4.7-0.3-9.3 0c-3.6 0.3-6.6-0.6-8.7-3.7-0.8-1.1-1.6-1.1-2.8-0.5-2 1.2-4.1 2.4-6.2 3.6-1.1 0.6-1.5 1.4-0.9 2.6 1.4 3.3 0.7 6.2-1.2 9.2-1.8 2.6-3.3 5.4-4.7 8.2-1.6 3.2-3.8 5.2-7.4 5.5-1.3 0.1-1.8 0.6-1.7 1.9 0.1 2.5 0.1 5.1 0 7.6 0 1.3 0.5 1.8 1.8 1.9 3.6 0.4 5.8 2.4 7.3 5.6 1.3 2.7 2.8 5.4 4.5 7.8 2.1 3 2.8 6 1.3 9.4-0.5 1.3-0.2 2 1 2.7 2.1 1.2 4.2 2.3 6.2 3.6 1.2 0.8 2 0.6 2.9-0.6 1.9-2.7 4.6-3.7 7.9-3.5 3.5 0.2 7 0.2 10.6 0 3.3-0.2 6 0.8 7.9 3.5 0.3 0.5 0.5 1.2 0.7 1.8zm2.5-131.2c0.1-0.5 0.1-0.7 0.1-0.9 0-2.7 0-5.5 0-8.2 0-4.6-1-5.5-5.6-5.5q-74.4 0-148.8 0c-0.8 0-1.6-0.1-2.4 0.1-1.6 0.2-3.1 1.1-3.2 2.8-0.1 3.7 0 7.7 0 11.7 53.4 0 106.6 0 159.9 0zm-62.2 91.4c-12.9 0-25.7 0-38.7 0-1.2 4.4-2.4 8.8-3.6 13.4 14.7 0 29.2 0 44 0-2.6-4.3-1.1-8.8-1.7-13.4zm-62.3 25.7c25.4 0 50.7 0 76.1 0-0.4-0.7-0.8-1.2-1-1.7-0.9-2.7-2.8-3.1-5.5-3.1-20.1 0.1-40.1 0.1-60.2 0.1-1.2 0-2.3 0-3.4 0.2-2.6 0.5-4.7 1.9-6 4.5z"/><path  d="m121.7 88.8c-4-3.9-7.5-7.3-10.9-10.9-0.8-0.8-1.7-2.1-1.6-3.1 0.1-1.2 1-2.8 2-3.2 1.1-0.5 3.1-0.3 3.9 0.5 4.8 4.5 9.5 9.3 14.1 14 1.5 1.6 1.4 3.6-0.3 5.2-4.5 4.5-9 9-13.6 13.4-1.6 1.5-3.8 1.4-5.2 0-1.4-1.4-1.4-3.6 0.2-5.2 3-3.1 6.1-6.2 9.2-9.2 0.6-0.6 1.3-1 2.2-1.5z"/><path  d="m57 88.6c3.3 3.2 6.6 6.3 9.8 9.5 0.6 0.6 1.2 1.2 1.8 1.9 1.2 1.6 0.9 3.6-0.5 4.9-1.3 1.2-3.4 1.4-4.7 0.1-4.8-4.7-9.6-9.5-14.3-14.4-1.5-1.5-1.1-3.4 0.3-4.9 4.5-4.6 9-9.1 13.6-13.6 1.6-1.6 3.8-1.5 5.2-0.1 1.6 1.5 1.6 3.6-0.1 5.4-3 3.1-6.1 6.1-9.2 9.2-0.5 0.5-1 1.1-1.9 2z"/><path  d="m83 104.2c-3.5 0-5.2-2.9-3.9-5.5 1.1-2.2 2.4-4.3 3.6-6.4 3.3-5.8 6.5-11.5 9.9-17.3 1.7-3 5.4-3.2 6.7-0.4 0.5 1.1 0.5 2.8-0.1 3.8-4.4 7.9-9 15.8-13.6 23.6-0.7 1.2-2 1.8-2.6 2.2z"/><path  d="m169.5 137.3c0 9.2-7.7 16.8-16.9 16.8-9.2-0.1-16.8-7.8-16.7-16.9 0.1-9.2 7.6-16.6 16.8-16.7 9.2-0.1 16.8 7.6 16.8 16.8zm-26.2 0c0.1 5 4.2 9.3 9 9.3 5.4 0 9.8-4.3 9.8-9.5-0.1-5.1-4.4-9.4-9.5-9.3-5.2 0.1-9.4 4.4-9.3 9.5z"/><path  d="m17.8 31.1c2.1 0 3.7 1.6 3.6 3.7 0 1.9-1.6 3.6-3.6 3.6-2 0.1-3.8-1.7-3.8-3.7 0.1-2 1.7-3.7 3.8-3.6z"/><path  d="m42.4 31.1c2.1 0 3.7 1.6 3.7 3.7 0 2-1.8 3.7-3.8 3.6-1.9-0.1-3.5-1.7-3.6-3.6 0-2.1 1.7-3.7 3.7-3.7z"/><path  d="m30.2 31.1c2 0 3.7 1.7 3.7 3.7-0.1 2-1.9 3.7-3.8 3.6-1.9-0.1-3.5-1.7-3.5-3.7-0.1-2.1 1.5-3.7 3.6-3.6z"/><path  d="m179 15.1h-97c-1.8 0-3.3-1.5-3.3-3.3 0-1.8 1.5-3.3 3.3-3.3h97c1.8 0 3.3 1.5 3.3 3.3 0.1 1.8-1.4 3.3-3.3 3.3z"/><path  d="m71.6 188.1h-61.4c-1.8 0-3.3-1.5-3.3-3.3 0-1.8 1.5-3.3 3.3-3.3h61.3c1.8 0 3.3 1.5 3.3 3.3 0.1 1.8-1.4 3.3-3.2 3.3z"/></g></svg>